<svg id="Capa_1" data-name="Capa 1" xmlns="http://www.w3.org/2000/svg" viewBox="0 0 511 431"><defs><style>.cls-1{fill:#fff;}</style></defs><title>code</title><path class="cls-1" d="M455.5,40H55.5A55.57,55.57,0,0,0,0,95.5v320A55.57,55.57,0,0,0,55.5,471h400A55.57,55.57,0,0,0,511,415.5V95.5A55.57,55.57,0,0,0,455.5,40ZM496,415.5A40.55,40.55,0,0,1,455.5,456H55.5A40.55,40.55,0,0,1,15,415.5V95.5A40.55,40.55,0,0,1,55.5,55h400A40.55,40.55,0,0,1,496,95.5Z" transform="translate(0 -40)"/><path class="cls-1" d="M471.5,120H39.5a7.5,7.5,0,0,0,0,15h432a7.5,7.5,0,0,0,0-15Z" transform="translate(0 -40)"/><path class="cls-1" d="M55.5,95a7.51,7.51,0,1,0-5.3-2.2A7.51,7.51,0,0,0,55.5,95Z" transform="translate(0 -40)"/><path class="cls-1" d="M119.5,95a7.51,7.51,0,1,0-5.3-2.2A7.53,7.53,0,0,0,119.5,95Z" transform="translate(0 -40)"/><path class="cls-1" d="M87.5,95a7.51,7.51,0,1,0-5.3-2.2A7.51,7.51,0,0,0,87.5,95Z" transform="translate(0 -40)"/><path class="cls-1" d="M188.8,210.2a7.49,7.49,0,0,0-10.6,0l-80,80a7.49,7.49,0,0,0,0,10.6l80,80a7.5,7.5,0,0,0,10.6-10.6l-74.69-74.7,74.69-74.7A7.49,7.49,0,0,0,188.8,210.2Z" transform="translate(0 -40)"/><path class="cls-1" d="M332.8,210.2a7.5,7.5,0,0,0-10.6,10.6l74.69,74.7L322.2,370.2a7.5,7.5,0,1,0,10.6,10.6l80-80a7.49,7.49,0,0,0,0-10.6Z" transform="translate(0 -40)"/><path class="cls-1" d="M290.06,200.45a7.5,7.5,0,0,0-9.61,4.49l-64,176a7.5,7.5,0,0,0,4.49,9.61,7.39,7.39,0,0,0,2.56.45,7.51,7.51,0,0,0,7.05-4.94l64-176A7.5,7.5,0,0,0,290.06,200.45Z" transform="translate(0 -40)"/></svg>