<svg id="Layer_1" data-name="Layer 1" xmlns="http://www.w3.org/2000/svg" viewBox="0 0 480 480"><defs><style>.cls-1{fill:#fff;}</style></defs><title>coding</title><path class="cls-1" d="M56,416A56.07,56.07,0,0,0,0,472a8,8,0,0,0,8,8h96a8,8,0,0,0,8-8A56.07,56.07,0,0,0,56,416ZM16.81,464A40,40,0,0,1,48,432.88V448H64V432.88A40.05,40.05,0,0,1,95.19,464Z"/><path class="cls-1" d="M472,344H458c-.44-1.11-.9-2.22-1.39-3.33l9.92-9.93a8,8,0,0,0,0-11.31L432.57,285.5a7.88,7.88,0,0,0-6-2.28A39.9,39.9,0,0,0,448,248V40A40,40,0,0,0,408,0H40A40,40,0,0,0,0,40V248a40,40,0,0,0,40,40H144.4l-30.22,56H100a28,28,0,0,0,0,56H272a8,8,0,0,0,8,8h14c.44,1.11.9,2.22,1.39,3.33l-9.92,9.93a8,8,0,0,0,0,11.31l33.93,33.93a8,8,0,0,0,11.31,0l9.93-9.92c1.11.49,2.22.95,3.33,1.39v14a8,8,0,0,0,8,8h48a8,8,0,0,0,8-8V458c1.11-.44,2.22-.9,3.33-1.39l9.93,9.92a8,8,0,0,0,11.31,0l33.93-33.93a8,8,0,0,0,0-11.31l-9.92-9.93c.49-1.11.95-2.22,1.39-3.33h14a8,8,0,0,0,8-8V352A8,8,0,0,0,472,344ZM16,40A24,24,0,0,1,40,16H408a24,24,0,0,1,24,24V208H16ZM40,272a24,24,0,0,1-24-24V224H432v24a24,24,0,0,1-24,24H40Zm381.15,13.6-9.82,9.82c-1.11-.49-2.22-.95-3.33-1.39v-6A39.36,39.36,0,0,0,421.15,285.6ZM344,288v6c-1.11.44-2.22.9-3.33,1.39L333.25,288Zm-27.08,0-6.9,6.9-4.69-6.9ZM272,384H100a12,12,0,0,1,0-24H272ZM132.36,344l30.22-56H286l12.54,18.41-13,13a8,8,0,0,0,0,11.32l9.92,9.92c-.49,1.12-.95,2.22-1.39,3.33H132.36ZM464,392H452.33a8,8,0,0,0-7.63,5.59,72.38,72.38,0,0,1-4.88,11.67,8,8,0,0,0,1.44,9.36l8.28,8.29-22.62,22.63-8.29-8.29a8,8,0,0,0-9.36-1.44,72.75,72.75,0,0,1-11.67,4.88,8,8,0,0,0-5.6,7.64V464H360V452.33a8,8,0,0,0-5.59-7.63,72.38,72.38,0,0,1-11.67-4.88,8,8,0,0,0-9.36,1.44l-8.29,8.28-22.63-22.62,8.29-8.29a8,8,0,0,0,1.44-9.36,72.75,72.75,0,0,1-4.88-11.67,8,8,0,0,0-7.64-5.6H288V360h11.67a8,8,0,0,0,7.63-5.59,72.38,72.38,0,0,1,4.88-11.67,8,8,0,0,0-1.44-9.36l-8.28-8.29,22.62-22.63,8.29,8.29a8,8,0,0,0,9.36,1.44,72.75,72.75,0,0,1,11.67-4.88,8,8,0,0,0,5.6-7.64V288h32v11.67a8,8,0,0,0,5.59,7.63,72.38,72.38,0,0,1,11.67,4.88,8,8,0,0,0,9.36-1.44l8.29-8.28,22.63,22.62-8.29,8.29a8,8,0,0,0-1.44,9.36,72.75,72.75,0,0,1,4.88,11.67,8,8,0,0,0,7.64,5.6H464Z"/><path class="cls-1" d="M376,328a48,48,0,1,0,48,48A48.05,48.05,0,0,0,376,328Zm0,80a32,32,0,1,1,32-32A32,32,0,0,1,376,408Z"/><path class="cls-1" d="M157.66,61.66,146.34,50.34l-56,56a8,8,0,0,0,0,11.32l56,56,11.32-11.32L107.31,112Z"/><path class="cls-1" d="M333.66,106.34l-56-56L266.34,61.66,316.69,112l-50.35,50.34,11.32,11.32,56-56A8,8,0,0,0,333.66,106.34Z"/><rect class="cls-1" x="131.51" y="96.02" width="160.95" height="16" transform="translate(24.14 247.1) rotate(-63.43)"/><rect class="cls-1" x="312" y="160" width="16" height="16"/><rect class="cls-1" x="344" y="160" width="16" height="16"/><rect class="cls-1" x="376" y="160" width="16" height="16"/></svg>