<svg id="Layer_1" data-name="Layer 1" xmlns="http://www.w3.org/2000/svg" viewBox="0 0 514 513.45"><defs><style>.cls-1{fill:#fff;stroke:#fff;stroke-miterlimit:10;stroke-width:3px;}</style></defs><title>data</title><path class="cls-1" d="M58.85,187.18A7.48,7.48,0,0,0,69.42,176.6L51.26,158.44l18.16-18.15a7.48,7.48,0,1,0-10.57-10.58L35.4,153.16a7.47,7.47,0,0,0,0,10.57Z" transform="translate(1.5 0.5)"/><path class="cls-1" d="M133.06,158.44,114.9,176.6a7.48,7.48,0,0,0,10.58,10.58l23.45-23.45a7.47,7.47,0,0,0,0-10.57l-23.45-23.45a7.48,7.48,0,1,0-10.58,10.57Z" transform="translate(1.5 0.5)"/><path class="cls-1" d="M81,188.85a7.48,7.48,0,0,0,9.7-4.22l18.42-46.9a7.48,7.48,0,1,0-13.92-5.47l-18.42,46.9A7.48,7.48,0,0,0,81,188.85Z" transform="translate(1.5 0.5)"/><path class="cls-1" d="M44.92,233.25H95.3a7.48,7.48,0,1,0,0-15H44.92a7.48,7.48,0,1,0,0,15Z" transform="translate(1.5 0.5)"/><path class="cls-1" d="M211.34,218.29H122.76a7.48,7.48,0,0,0,0,15h88.58a7.48,7.48,0,0,0,0-15Z" transform="translate(1.5 0.5)"/><path class="cls-1" d="M44.92,264.79H66.38a7.48,7.48,0,1,0,0-15H44.92a7.48,7.48,0,0,0,0,15Z" transform="translate(1.5 0.5)"/><path class="cls-1" d="M184,249.83a7.48,7.48,0,1,0,0,15h13.07a7.48,7.48,0,1,0,0-15Z" transform="translate(1.5 0.5)"/><path class="cls-1" d="M164.3,257.31a7.48,7.48,0,0,0-7.48-7.48H92.62a7.48,7.48,0,0,0,0,15h64.2A7.48,7.48,0,0,0,164.3,257.31Z" transform="translate(1.5 0.5)"/><path class="cls-1" d="M213.29,257.31a7.48,7.48,0,0,0,7.47,7.48h24.48a7.48,7.48,0,1,0,0-15H220.76A7.48,7.48,0,0,0,213.29,257.31Z" transform="translate(1.5 0.5)"/><path class="cls-1" d="M172.56,164.44h25.82a7.48,7.48,0,0,0,0-15H172.56a7.48,7.48,0,1,0,0,15Z" transform="translate(1.5 0.5)"/><path class="cls-1" d="M227.3,164.44H384.85a7.48,7.48,0,0,0,0-15H227.3a7.48,7.48,0,0,0,0,15Z" transform="translate(1.5 0.5)"/><path class="cls-1" d="M360.92,182.39H297.1a7.48,7.48,0,0,0,0,15h63.82a7.48,7.48,0,0,0,0-15Z" transform="translate(1.5 0.5)"/><path class="cls-1" d="M273.17,182.39H251.23a7.48,7.48,0,0,0,0,15h21.94a7.48,7.48,0,0,0,0-15Z" transform="translate(1.5 0.5)"/><path class="cls-1" d="M172.56,197.35H226.3a7.48,7.48,0,0,0,0-15H172.56a7.48,7.48,0,0,0,0,15Z" transform="translate(1.5 0.5)"/><path class="cls-1" d="M156.91,281.11H106.53a7.48,7.48,0,0,0,0,15h50.38a7.48,7.48,0,0,0,0-15Z" transform="translate(1.5 0.5)"/><path class="cls-1" d="M83.63,281.11H44.92a7.48,7.48,0,0,0,0,15H83.63a7.48,7.48,0,0,0,0-15Z" transform="translate(1.5 0.5)"/><path class="cls-1" d="M248.24,281.11H182.42a7.48,7.48,0,0,0,0,15h65.82a7.48,7.48,0,1,0,0-15Z" transform="translate(1.5 0.5)"/><path class="cls-1" d="M337.24,242.69h-36a7.48,7.48,0,0,0,0,15h36a7.48,7.48,0,1,0,0-15Z" transform="translate(1.5 0.5)"/><path class="cls-1" d="M399.69,257.65h50.8a7.48,7.48,0,1,0,0-15h-50.8a7.48,7.48,0,0,0,0,15Z" transform="translate(1.5 0.5)"/><path class="cls-1" d="M374.28,242.69H362.64a7.48,7.48,0,1,0,0,15h11.64a7.48,7.48,0,1,0,0-15Z" transform="translate(1.5 0.5)"/><path class="cls-1" d="M301.25,339.15h36a7.48,7.48,0,1,0,0-15h-36a7.48,7.48,0,0,0,0,15Z" transform="translate(1.5 0.5)"/><path class="cls-1" d="M399.69,339.15h50.8a7.48,7.48,0,0,0,0-15h-50.8a7.48,7.48,0,0,0,0,15Z" transform="translate(1.5 0.5)"/><path class="cls-1" d="M362.64,339.15h11.64a7.48,7.48,0,1,0,0-15H362.64a7.48,7.48,0,0,0,0,15Z" transform="translate(1.5 0.5)"/><path class="cls-1" d="M337.24,405.69h-36a7.48,7.48,0,0,0,0,15h36a7.48,7.48,0,0,0,0-15Z" transform="translate(1.5 0.5)"/><path class="cls-1" d="M450.49,405.69h-50.8a7.48,7.48,0,0,0,0,15h50.8a7.48,7.48,0,1,0,0-15Z" transform="translate(1.5 0.5)"/><path class="cls-1" d="M374.28,405.69H362.64a7.48,7.48,0,1,0,0,15h11.64a7.48,7.48,0,1,0,0-15Z" transform="translate(1.5 0.5)"/><path class="cls-1" d="M478.09,1H32.92A33,33,0,0,0,0,33.91V395.77a33,33,0,0,0,32.92,32.92H61.06a7.48,7.48,0,1,0,0-15H32.92a18,18,0,0,1-18-18V367.4H287.42v12.89h-5.93A14.73,14.73,0,0,0,266.78,395v18.73H106.53a7.48,7.48,0,0,0,0,15h71.91v26.82H155.86a27.35,27.35,0,0,0-27.32,27.32V499A12.48,12.48,0,0,0,141,511.45H369.43A12.48,12.48,0,0,0,381.89,499V482.83a27.35,27.35,0,0,0-27.31-27.32H332v-9.46H470.25A14.72,14.72,0,0,0,485,431.34v-3.52a33,33,0,0,0,25.47-32.05L511,33.91A32.94,32.94,0,0,0,478.09,1ZM281.74,349.6V313.75H470V349.6Zm20.64-50.81V283.06h147v15.73Zm147,65.76v15.74h-147V364.55Zm-256,64.14h73.39v2.66a14.72,14.72,0,0,0,14.71,14.7H317v9.46H193.39Zm161.19,41.78a12.37,12.37,0,0,1,12.36,12.36v13.66H143.49V482.83a12.38,12.38,0,0,1,12.37-12.36ZM470,431.09H281.74V395.25H470Zm25.48-35.32A18,18,0,0,1,485,412.09V395a14.73,14.73,0,0,0-14.71-14.71h-5.93V367.4h31.16Zm0-43.32H484.72c.15-.85.24-38.95.24-38.95a14.73,14.73,0,0,0-14.71-14.71h-5.93V283.06h5.93A14.73,14.73,0,0,0,485,268.35V232a14.73,14.73,0,0,0-14.71-14.71H428a7.48,7.48,0,0,0,0,15h42V268.1H281.74V232.25h99.74a7.48,7.48,0,0,0,0-15h-100A14.73,14.73,0,0,0,266.78,232v36.35a14.73,14.73,0,0,0,14.71,14.71h5.93v15.73h-5.93a14.73,14.73,0,0,0-14.71,14.71s.1,38.1.25,38.95H15V102.73H495.48Zm0-264.68h-480V33.91A18,18,0,0,1,33.47,16H477.52a18,18,0,0,1,18,17.95Z" transform="translate(1.5 0.5)"/><path class="cls-1" d="M55.15,29.7a21.95,21.95,0,1,0,21.95,22A22,22,0,0,0,55.15,29.7Zm0,28.94a7,7,0,1,1,7-7A7,7,0,0,1,55.15,58.64Z" transform="translate(1.5 0.5)"/><path class="cls-1" d="M111,29.7a21.95,21.95,0,1,0,21.95,22A22,22,0,0,0,111,29.7Zm0,28.94a7,7,0,1,1,7-7A7,7,0,0,1,111,58.64Z" transform="translate(1.5 0.5)"/><path class="cls-1" d="M166.91,29.7a21.95,21.95,0,1,0,22,22A22,22,0,0,0,166.91,29.7Zm0,28.94a7,7,0,1,1,7-7A7,7,0,0,1,166.91,58.64Z" transform="translate(1.5 0.5)"/></svg>