<svg id="Capa_1" data-name="Capa 1" xmlns="http://www.w3.org/2000/svg" viewBox="0 0 27.24 11.61"><defs><style>.cls-1{stroke:#000;stroke-miterlimit:10;stroke-width:0.25px;}</style></defs><title>favicon</title><path class="cls-1" d="M12.81.41l0,.2a23.68,23.68,0,0,1-.91,3.56A14.44,14.44,0,0,1,10.52,7q-2.74,4.52-6,4.51a4.84,4.84,0,0,1-1.83-.35,4.22,4.22,0,0,1-1.49-.94A3.09,3.09,0,0,1,.31,8a2.8,2.8,0,0,1,1-2.22A3.84,3.84,0,0,1,4,4.85a9.61,9.61,0,0,1,5.36,2l-.65.43A11,11,0,0,0,6,5.88a7.58,7.58,0,0,0-2.59-.56,3.05,3.05,0,0,0-2,.65A2.08,2.08,0,0,0,.64,7.63,2.8,2.8,0,0,0,1,8.92,3.32,3.32,0,0,0,1.84,10a3.71,3.71,0,0,0,1.29.65,5.47,5.47,0,0,0,1.63.25A5.61,5.61,0,0,0,9.36,8.3a13.17,13.17,0,0,0,1.35-2.41,12.32,12.32,0,0,0,.87-2.59L11.84,2,12,1.19c0-.06,0-.13,0-.23-.2,0-.37,0-.53,0H11a1.7,1.7,0,0,0-.51.07,1.18,1.18,0,0,0-.63.41,1.17,1.17,0,0,0-.23.69,1.34,1.34,0,0,0,.19.7,4.92,4.92,0,0,0,.68.79,1.23,1.23,0,0,1,.48.83,1.66,1.66,0,0,1-.36,1A1,1,0,0,1,9.84,6a.64.64,0,0,1-.49-.21.84.84,0,0,1-.19-.56s0-.07,0-.14c.26.36.51.54.76.54s.55-.19.55-.57-.19-.52-.57-.87a2,2,0,0,1-.71-1.5,2.18,2.18,0,0,1,.67-1.6A2.21,2.21,0,0,1,11.48.39h1.33Z" transform="translate(-0.19 -0.01)"/><path class="cls-1" d="M12.15,7.75a.24.24,0,0,1,.27.27.38.38,0,0,1-.12.28.37.37,0,0,1-.27.12c-.19,0-.28-.09-.28-.27a.41.41,0,0,1,.4-.4Z" transform="translate(-0.19 -0.01)"/><path class="cls-1" d="M22.86,4.57a.7.7,0,0,1,.29.66,3,3,0,0,1-.63,1.67,3.16,3.16,0,0,1-2.58,1.63,2.3,2.3,0,0,1-1.73-.69,2.44,2.44,0,0,1-.68-1.79,5,5,0,0,1,.61-2.36,6,6,0,0,1,1.66-2A7.43,7.43,0,0,1,24.54.13a3.61,3.61,0,0,1,2,.5A1.56,1.56,0,0,1,27.3,2a2,2,0,0,1-.92,1.65,3.54,3.54,0,0,1-2.17.7,13.47,13.47,0,0,1-2.66-.48A7.62,7.62,0,0,0,20,3.6a2.31,2.31,0,0,0-.76.14l.07-.09c.26-.29.46-.53.58-.69l.38,0a13.12,13.12,0,0,1,2.68.53A8.67,8.67,0,0,0,25,3.84a2.07,2.07,0,0,0,1.35-.45,1.4,1.4,0,0,0,.55-1.11A1.51,1.51,0,0,0,26,1,4.11,4.11,0,0,0,23.88.47,6.33,6.33,0,0,0,21.63.9a5.29,5.29,0,0,0-1.87,1.18,4.85,4.85,0,0,0-1.62,3.58,2.27,2.27,0,0,0,.61,1.65,2.2,2.2,0,0,0,1.64.61A2.15,2.15,0,0,0,22.16,7a3.54,3.54,0,0,0,.7-2.26Z" transform="translate(-0.19 -0.01)"/><path class="cls-1" d="M26.32,7.75a.24.24,0,0,1,.27.27.38.38,0,0,1-.12.28.37.37,0,0,1-.27.12.24.24,0,0,1-.27-.27.39.39,0,0,1,.12-.28A.37.37,0,0,1,26.32,7.75Z" transform="translate(-0.19 -0.01)"/></svg>