<svg id="Layer_1" data-name="Layer 1" xmlns="http://www.w3.org/2000/svg" viewBox="0 0 511 507.82"><defs><style>.cls-1{fill:#fff;}</style></defs><title>hammer</title><path class="cls-1" d="M282.12,290.4l139,139a7.48,7.48,0,1,0,10.59-10.58l-139-139a7.48,7.48,0,0,0-10.58,10.58Z" transform="translate(0 -1.99)"/><path class="cls-1" d="M163.14,160.84a7.48,7.48,0,0,0,0,10.58L200.69,209a7.48,7.48,0,1,0,10.58-10.58l-37.54-37.55A7.48,7.48,0,0,0,163.14,160.84Z" transform="translate(0 -1.99)"/><path class="cls-1" d="M251.68,291.32,372.24,157.9l9,8a13.58,13.58,0,0,0,19.12-1l2.37-2.62,8.44,7.62-3.35,3.7a20.41,20.41,0,0,0,1.46,28.83l20.32,18.36a20.25,20.25,0,0,0,13.66,5.27l1.06,0a20.25,20.25,0,0,0,14.11-6.7l45.1-49.92a20.43,20.43,0,0,0-1.46-28.83l-20.32-18.36a20.42,20.42,0,0,0-28.27.86L445,115.5l3.05-3.37a13.59,13.59,0,0,0-1-19.16L379.55,31.86h0A117.28,117.28,0,0,0,312.22,2.51C287.21.15,263.7,6,246,18.9a13.57,13.57,0,0,0,5.87,24.36C303.06,51.4,317,67.88,320.55,74.59s3.41,14.47-.71,23.48a13.51,13.51,0,0,0,.52,12.34L199.5,244.18a15.57,15.57,0,0,0-19.25,3l-9,9.93a15.56,15.56,0,0,0-1,19.56L139,298.81l-.14.1a238.54,238.54,0,0,0-34.76,31.55l-89.5,99.06a48.06,48.06,0,0,0,35.61,80.29q1.24,0,2.49-.06A47.74,47.74,0,0,0,86,494l89.51-99.06a238,238,0,0,0,27.88-37.77l.08-.14,18.82-33.3a15.35,15.35,0,0,0,7.82,2.12c.27,0,.54,0,.8,0a15.46,15.46,0,0,0,10.74-5.09l9-9.93a15.52,15.52,0,0,0,1.1-19.46ZM240.81,281l-30-27.08L331,120.93l30.06,27Zm227-149a5.42,5.42,0,0,1,3.92,1.39L492,151.74a5.43,5.43,0,0,1,.39,7.68l-45.1,49.92a5.38,5.38,0,0,1-3.76,1.79,5.44,5.44,0,0,1-3.92-1.4L419.3,191.37a5.44,5.44,0,0,1-.39-7.68L464,133.77A5.39,5.39,0,0,1,467.77,132Zm-24.35,2.24-22.23,24.61-8.44-7.62L435,126.61ZM257.67,29C288.81,8.74,338.16,14.64,369.51,43L436,103.13l-45.85,50.74-56.3-50.51c5.7-13,5.66-25.08-.12-35.85C320.9,43.56,282,33.24,257.67,29ZM190.45,349.56a223.65,223.65,0,0,1-26.08,35.32l-89.5,99.05a33.1,33.1,0,0,1-49.12-44.38l89.51-99.05A223.49,223.49,0,0,1,147.75,311l33.63-23.78,29.33,26.5Zm49-48.82-9,9.93a.55.55,0,0,1-.39.18.58.58,0,0,1-.39-.14L182.44,268a.54.54,0,0,1,0-.78l9-9.93a.56.56,0,0,1,.78,0L239.43,300a.47.47,0,0,1,.19.38A.49.49,0,0,1,239.47,300.74Z" transform="translate(0 -1.99)"/><path class="cls-1" d="M33.65,165.58c19.45,15.74,45.69,22.27,72,17.92a34.39,34.39,0,0,1,29.84,9.81l35.06,35.05a7.49,7.49,0,0,0,10.59-10.59l-35.06-35.05a49.44,49.44,0,0,0-42.88-14c-22.08,3.66-44-1.74-60.13-14.79A75.86,75.86,0,0,1,15,92.79l45.14,36.52A29.41,29.41,0,0,0,101.47,125l20.74-25.63A29.37,29.37,0,0,0,117.85,58L72.7,21.47A75.55,75.55,0,0,1,140.6,38C157.07,52.4,166,74.33,165.08,98.18a50.63,50.63,0,0,0,14.52,37.71l45.77,45.77A7.49,7.49,0,1,0,236,171.07L190.19,125.3A35.58,35.58,0,0,1,180,98.75c1.09-28.39-9.7-54.63-29.6-72A90.49,90.49,0,0,0,65.33,8,13.28,13.28,0,0,0,60.7,31l47.73,38.61a14.42,14.42,0,0,1,2.14,20.28L89.84,115.54a14.45,14.45,0,0,1-20.28,2.14L21.84,79.06A13.28,13.28,0,0,0,.24,88.39,90.84,90.84,0,0,0,33.65,165.58Z" transform="translate(0 -1.99)"/><path class="cls-1" d="M498.31,433.43,317.39,252.5a7.49,7.49,0,0,0-10.59,10.59L487.73,444a28.42,28.42,0,0,1-40.18,40.19L277,313.64a7.48,7.48,0,0,0-10.59,10.58L437,494.79a43.38,43.38,0,0,0,61.34-61.36Z" transform="translate(0 -1.99)"/></svg>