<svg id="Capa_1" data-name="Capa 1" xmlns="http://www.w3.org/2000/svg" viewBox="0 0 512 512"><defs><style>.cls-1{fill:#fff;}</style></defs><title>servers</title><path class="cls-1" d="M221.14,394.67a10.65,10.65,0,0,0-10.6-10.73c-113.17-.67-189.21-39.11-189.21-74.61V245c34.2,32,106.35,53.72,192,53.72S371.14,277,405.33,245v60.48a10.67,10.67,0,0,0,21.34,0V96c0-53.82-93.72-96-213.34-96S0,42.18,0,96V416c0,50.69,81,90.88,192.53,95.55H193a10.66,10.66,0,0,0,.43-21.31C87.13,485.78,21.33,448.23,21.33,416V352.17c33.54,31.53,103.75,52.61,189.08,53.1h.06A10.66,10.66,0,0,0,221.14,394.67ZM213.33,21.33c113.15,0,192,39.36,192,74.67s-78.84,74.67-192,74.67-192-39.36-192-74.67S100.18,21.33,213.33,21.33Zm-192,117c34.2,32,106.35,53.72,192,53.72s157.81-21.68,192-53.72v64.39c0,35.3-78.84,74.66-192,74.66s-192-39.36-192-74.66Z"/><path class="cls-1" d="M437.33,362.67c-1.94,0-3.88.1-5.78.27a95.68,95.68,0,0,0-175.06,43.38A53.33,53.33,0,0,0,266.67,512H437.33a74.67,74.67,0,1,0,0-149.33Zm0,128H266.67a32,32,0,0,1,0-64A10.67,10.67,0,0,0,277.33,416a74.39,74.39,0,0,1,139.48-36.31A10.67,10.67,0,0,0,428,385a54.26,54.26,0,0,1,9.34-1,53.34,53.34,0,1,1,0,106.67Z"/></svg>