<svg id="Layer_1" data-name="Layer 1" xmlns="http://www.w3.org/2000/svg" viewBox="0 0 224.98 75.24"><defs><style>.cls-1{fill:#fff;}.cls-2{fill:none;stroke:#fff;stroke-miterlimit:10;stroke-width:2px;}</style></defs><title>Signature-w</title><path class="cls-1" d="M66.79,16.53,49.62,46.91c3.16,1.79,7.25,1,9.49,4.14.44.61.12,1.46-.91,2a21.4,21.4,0,0,0-6.48-3.89c-2.13-.85-3.31-.54-4.56,1.48-4.14,6.73-9,12.87-15.49,17.56-.66.29-1-.08-1.28-.61a2.45,2.45,0,0,1,.85-2.34c5-4.9,8.42-11,12.23-16.79a6,6,0,0,1,2.25-2.1c4.79-8.65,9.24-17.5,14.84-25.69,1.39-2,2.82-4.06,5.09-5.26C66.59,15.22,67,15.59,66.79,16.53Z" transform="translate(0 0.01)"/><path class="cls-1" d="M123.65,13.24c-10,2.21-16.74,8.8-22.34,16.83a26,26,0,0,0-4,8.75c-1.91,7.87,2.16,13,10.26,12.84,1.12,0,2.24-.09,3.36-.15.78-.37.87,0,.74.66a18.06,18.06,0,0,1-11-.48C94.6,49.3,91.78,44.25,93.47,38c2.45-9.17,8.69-15.53,16.25-20.73a25,25,0,0,1,12.4-4.77C122.78,12.32,123.69,11.81,123.65,13.24Z" transform="translate(0 0.01)"/><path class="cls-1" d="M128.9,41c4.52-6.12,7.5-13.18,11.75-19.47,4.58-6.76,9.55-13.08,16.75-17.27.79-.32.92.06.75.73A47.16,47.16,0,0,0,146.43,18.8c-4.49,7.56-8.74,15.26-13,22.92-.52.92-1.91,2,0,3,.23.17.3.35.22.52s-.16.25-.24.25c-3.52.91-4,.61-4.48-2.94C128.87,42.06,128.49,41.55,128.9,41Z" transform="translate(0 0.01)"/><path class="cls-1" d="M183.83,32.94a23.64,23.64,0,0,0-7.56,9.31c-1.92,4-2.4,5-5.31.4l.08.08c5.69-8,9.54-17.1,15.42-25,3.44-4.6,7.07-9,12.06-12,.78-.3.93.12.89.76-8,7.58-12.73,17.3-18,26.78,1.06.27,1.71-.93,2.57-.23Z" transform="translate(0 0.01)"/><path class="cls-1" d="M203.9,44c-4.72,3.25-9.22,2.55-11.6-1.69a3.2,3.2,0,0,1-.22-3c2.36-7,7.25-11.13,13.28-11.14,1.49,0,2.82.22,3.57,1.51.88,1.54,0,3-1,4.07-2.46,2.71-5.88,3.55-9.25,4.42-.43-1.35-.46-1.4.85-2.29,1.87-1.29,3.92-2.38,4.23-5-3.11,1.86-4.89,4.86-6.67,7.85-2,1.13-1.71,3-1,4.54s2.36,1.52,3.91,1.54,2.56-1.07,4-.75Z" transform="translate(0 0.01)"/><path class="cls-1" d="M14.87,74.67a15.64,15.64,0,0,1-8.41-1.11C.46,71-1.61,65.64,1.3,59.82a41.81,41.81,0,0,1,3.11-4.61c4.43-5.45,10.25-7.78,17.15-7.68a1,1,0,0,1,.34,1c-1.1,1.56-2.95,1.7-4.53,2.33-5.11,2-9.44,5-11.66,10.28-2.37,5.6-.36,9.69,5.49,11.53a17.33,17.33,0,0,1,3.55,1,.64.64,0,0,1,.27.61Q15,74.67,14.87,74.67Z" transform="translate(0 0.01)"/><path class="cls-1" d="M152.88,45.4c-2.29,1-4.1,1-4.42-2.09-.49-.22-1-.48-1-1.08,1.51-4.22,4.41-7.77,5.84-12l.41-.33c.7.22,1.25.78,2.1,0a3.89,3.89,0,0,1,4.32-1.09c-2.42,4.39-4.81,8.67-7.11,13-.47.87-1.89,1.9,0,2.86.2.2.26.38.18.56A.31.31,0,0,1,152.88,45.4Z" transform="translate(0 0.01)"/><path class="cls-1" d="M144.62,45.42c-1.56.66-3.29,1.17-4.41-.42a5,5,0,0,1-.41-5.44A28.41,28.41,0,0,1,145.66,31c2-1.87,4.15-3.68,7.27-2.58.26,1.09-.71,1.45-1.23,2.07a24.34,24.34,0,0,0-6.08,8c-1,1.89-1.91,3.84-.79,6A.85.85,0,0,1,144.62,45.42Z" transform="translate(0 0.01)"/><path class="cls-1" d="M191.23,28.39c2.37-.12,2.69,1,1.51,2.73a16.06,16.06,0,0,1-5.55,4.94c-2.32,1.3-1.18,3.27-1,5,.14,1.31.29,2.93,2.45,2.37-.13,1.21-1.2,1.49-1.94,2-1.83,1.22-3.32,1-3.91-1.35-.48-1.93-.83-3.89-1.29-5.82-.38-1.65.81-2.21,1.89-2.82a38,38,0,0,0,7.94-5.54.57.57,0,0,0-.11-.8h0c-.25-.16-.33-.31-.23-.46S191.14,28.39,191.23,28.39Z" transform="translate(0 0.01)"/><path class="cls-1" d="M167.88,44.75a2.25,2.25,0,0,1-3,1.1h0a2.77,2.77,0,0,1-.37-.22c-1.44-.84-1.35-2.33-.76-3.61,1.07-2.35,2.34-4.61,3.52-6.9.94-.78-.67-2.71,1.36-3,2.42,1.89,2.33,4.18,1,6.63-.77,1.41-1.6,2.79-2.42,4.18-.54.93-.54,1.63.71,1.88Z" transform="translate(0 0.01)"/><path class="cls-1" d="M41.32,18.75c-.72,5.71-.27,6.63,4.85,10-2.6,3.45-4.56,3.4-6.52-.38a9.5,9.5,0,0,1,.87-10.49C41.23,17.76,41.66,17.91,41.32,18.75Z" transform="translate(0 0.01)"/><path class="cls-1" d="M129,13.12c3.48,2.24,3.82,5.84.65,7.5a3.25,3.25,0,0,1-3.52,0,1.4,1.4,0,0,1-.66-1.59,2.61,2.61,0,0,1,2.43-2c3-.11,2.07-1.57,1.13-3.07a.52.52,0,0,1-.23-.56C128.82,13.22,128.89,13.12,129,13.12Z" transform="translate(0 0.01)"/><path class="cls-1" d="M210,.71c5-.71,9.9-.79,13.68,3.5.75.84,1.61,1.65,1.19,2.91a2,2,0,0,1-1,1c-.18.09-.8-.23-.89-.48-2.21-6.52-7.52-6.68-13-6.41-.26-.12-.34-.24-.26-.36A.33.33,0,0,1,210,.71Z" transform="translate(0 0.01)"/><path class="cls-1" d="M80,43.52A2.88,2.88,0,0,1,77.12,46c-1.39.15-2.58-.51-2.47-2s1.44-2.19,2.92-2.24A2.16,2.16,0,0,1,80,43.52Z" transform="translate(0 0.01)"/><path class="cls-1" d="M111.62,52.17l-.74-.66a64.74,64.74,0,0,0,13.45-6.12l.3.32A27.28,27.28,0,0,1,111.62,52.17Z" transform="translate(0 0.01)"/><path class="cls-1" d="M176.26,1.32a10.13,10.13,0,0,1,4.47,3.25c1.07,1.13,1.22,2.31,0,3.91C178.83,6,177.89,2.94,174.81,2,174.81.63,175.52.92,176.26,1.32Z" transform="translate(0 0.01)"/><path class="cls-1" d="M67.45,13.32c1.48-.06,2.81-.93,4.35-.76,1.71.19,2.81.77,2.35,2.9-2,.17-3.78-1.45-5.76-.56C67.06,15,66.93,14.37,67.45,13.32Z" transform="translate(0 0.01)"/><path class="cls-1" d="M176.26,1.32c-.5.18-1.16,0-1.45.65A19.64,19.64,0,0,0,165,2c-.26-.16-.35-.32-.27-.49s.16-.27.24-.27C168.7-.18,172.49-.68,176.26,1.32Z" transform="translate(0 0.01)"/><path class="cls-1" d="M168.64,32.13c-1.24.63,0,2.39-1.36,3,.13-1.47.31-3-1.53-3.79-1.88,1-1.94,3.55-3.63,4.75-.29,0-.45-.07-.45-.38l2.79-5.91c.69-.44.69-1.84,2-1.45C165.77,30.41,167.82,30.91,168.64,32.13Z" transform="translate(0 0.01)"/><path class="cls-1" d="M45.72,46.39l-1.28,2.2c-4.42-.75-9,.12-13.37-1a.77.77,0,0,1-.38-1v-.07Z" transform="translate(0 0.01)"/><path class="cls-1" d="M166.45,28.32c-1.07-.07-.08,2.68-2,1.45-.67-3.43-.57-3.63,3.14-5.72A9,9,0,0,1,166.45,28.32Z" transform="translate(0 0.01)"/><path class="cls-1" d="M30.64,67.21l1,1c-3.17,2.55-6.44,4.89-10.73,5.06a4.63,4.63,0,0,0-.07-.52C24.15,71,26.85,68.12,30.64,67.21Z" transform="translate(0 0.01)"/><path class="cls-1" d="M210,.71v.53a37.28,37.28,0,0,0-10.55,5.23l-.89-.76C201.78,2.77,205.83,1.63,210,.71Z" transform="translate(0 0.01)"/><path class="cls-1" d="M153.61,44c2.65-1.56,4.36-4.17,6.76-6l.1.09c-1.14,3-3.52,4.88-6.08,6.6A1.27,1.27,0,0,1,153.61,44Z" transform="translate(0 0.01)"/><path class="cls-1" d="M164.92,1.23V2c-2.44.61-4.49,2.1-6.8,3l-.75-.73A14.93,14.93,0,0,1,164.92,1.23Z" transform="translate(0 0.01)"/><path class="cls-1" d="M30.73,46.46a5.61,5.61,0,0,1,0,.58,9.08,9.08,0,0,1-9,1.42,2.81,2.81,0,0,1,0-.71c1.49-1.5,3.73-.1,5.28-1.36Z" transform="translate(0 0.01)"/><path class="cls-1" d="M129,13.12V14c-1.69-.89-3.56-.47-5.34-.73-.35-.65-1.09-.5-1.61-.79A7.76,7.76,0,0,1,129,13.12Z" transform="translate(0 0.01)"/><path class="cls-1" d="M53.27,12.65l-7.6,2.1c-.39-.29-.39-.59,0-.89,2.09-1.36,4.47-1.64,6.87-1.9A1.27,1.27,0,0,1,53.27,12.65Z" transform="translate(0 0.01)"/><path class="cls-1" d="M67.45,13.32a1.53,1.53,0,0,0,.94,1.58,3,3,0,0,1-1.6,1.61l-1.14-1.09c.47-.78,1.59-1.69-.42-1.93L63,13.23a.56.56,0,0,1-.23-.56c0-.2.1-.3.16-.3C64.44,12.74,66.06,12.32,67.45,13.32Z" transform="translate(0 0.01)"/><path class="cls-1" d="M191.23,28.39v.68c-2.49.41-4.14,2.64-6.64,3l-.13-.13A9.72,9.72,0,0,1,191.23,28.39Z" transform="translate(0 0.01)"/><path class="cls-1" d="M128.9,41c.1.52,1,1,0,1.56-1.74.64-2.37,2.78-4.31,3.13a.59.59,0,0,1-.3-.32A28.89,28.89,0,0,1,128.9,41Z" transform="translate(0 0.01)"/><path class="cls-1" d="M45.67,13.86v.89a13.54,13.54,0,0,0-4.35,4l-.8-.89A8.14,8.14,0,0,1,45.67,13.86Z" transform="translate(0 0.01)"/><path class="cls-1" d="M14.87,74.67a1.09,1.09,0,0,1,0-.44c1.76-2.22,3.81-2.42,6.11-.88l-.05-.06C19.18,74.88,17.06,74.89,14.87,74.67Z" transform="translate(0 0.01)"/><path class="cls-1" d="M53.27,12.65,52.54,12h7.31c0,1.31-.71,1-1.46.68Z" transform="translate(0 0.01)"/><path class="cls-1" d="M58.39,12.64,59.85,12c1.07-.14,2.18-.55,3.09.43l.07.86A7.75,7.75,0,0,1,58.39,12.64Z" transform="translate(0 0.01)"/><path class="cls-1" d="M144.62,45.42a.5.5,0,0,1,.08-.51c-.17-1.94,1.27-2.09,2.62-2.35.65-.16,1.06,0,1.14.75C146.94,43.56,146.26,45.37,144.62,45.42Z" transform="translate(0 0.01)"/><path class="cls-1" d="M211.67,36.71a9.15,9.15,0,0,1-2.54,3.48,1.21,1.21,0,0,1,.06-1,5.61,5.61,0,0,1,2.1-2.81Z" transform="translate(0 0.01)"/><path class="cls-1" d="M133.42,45.52v-.77a4.93,4.93,0,0,1,2.94-1.47A3.82,3.82,0,0,1,133.42,45.52Z" transform="translate(0 0.01)"/><path class="cls-1" d="M160.37,38a2.74,2.74,0,0,1,1.3-2.32.84.84,0,0,1,.45.38,2.52,2.52,0,0,1-1.65,2Z" transform="translate(0 0.01)"/><path class="cls-1" d="M206.2,42.57A1.94,1.94,0,0,1,203.9,44l.07.08a1.87,1.87,0,0,1,2.1-1.57h.14Z" transform="translate(0 0.01)"/><path class="cls-1" d="M170.29,43.41c-.7.64-1.26,1.51-2.41,1.34l.06.07c.64-.75,1.17-1.72,2.44-1.33Z" transform="translate(0 0.01)"/><path class="cls-1" d="M151.45,29.69l1.48-1.24c.81.17.93.71.73,1.42l.08-.07a1.5,1.5,0,0,1-2.12.07h0A1.29,1.29,0,0,1,151.45,29.69Z" transform="translate(0 0.01)"/><path class="cls-1" d="M153.61,44l.78.69-1.51.7v-.82C152.92,44.11,153.26,44.06,153.61,44Z" transform="translate(0 0.01)"/><path class="cls-1" d="M211.29,36.38c.14-.34.11-1,.69-.68.42.27.18.78-.31,1A1,1,0,0,1,211.29,36.38Z" transform="translate(0 0.01)"/><path class="cls-1" d="M170.38,43.49c-.33-.73,0-.85.66-.76l-.08-.08-.67.76Z" transform="translate(0 0.01)"/><path class="cls-1" d="M184.56,32.1l-.73.84L184,33c-.61-.7,0-.85.48-1.05Z" transform="translate(0 0.01)"/><path class="cls-1" d="M191.21,29.07c.84.16.76.44.11.8Z" transform="translate(0 0.01)"/><path class="cls-1" d="M209.19,39.19l-.06,1-.7.11h0C208.39,39.77,208.84,39.51,209.19,39.19Z" transform="translate(0 0.01)"/><path class="cls-1" d="M207,41.86c-.06-.56.19-.81.75-.76h0c0,.56-.21.8-.76.75Z" transform="translate(0 0.01)"/><path class="cls-1" d="M206.92,41.8c.06.54-.19.79-.72.77h0c0-.54.22-.79.77-.72Z" transform="translate(0 0.01)"/><path class="cls-1" d="M207.73,41.1q-.09-.83.75-.75h0c0,.55-.21.79-.75.74Z" transform="translate(0 0.01)"/><path class="cls-2" d="M21,73.32c-2.13-.39-4.12.28-6.11.88a2.38,2.38,0,0,0-.37-.06c-4.43-.26-8.51-1.34-10.22-6s.26-8.5,3.24-11.93c3.74-4.31,8.9-6.15,14.14-7.79l9-1.42c3.3,0,6.6,0,9.89.16,1.37.06,3-.25,3.84,1.39-4.15,6.54-8.19,13.17-13.8,18.62A57.87,57.87,0,0,1,21,73.32Z" transform="translate(0 0.01)"/></svg>