<svg id="Layer_1" data-name="Layer 1" xmlns="http://www.w3.org/2000/svg" viewBox="0 0 224.98 75.26"><defs><style>.cls-1{fill:none;stroke:#000;stroke-miterlimit:10;stroke-width:2px;}</style></defs><title>Signature</title><path d="M492.73,648.21l-17.17,30.38c3.16,1.79,7.25,1,9.49,4.14.44.61.12,1.46-.91,2a21.55,21.55,0,0,0-6.48-3.89c-2.13-.85-3.31-.54-4.56,1.48-4.14,6.73-9,12.87-15.49,17.56-.66.29-1-.08-1.28-.61a2.46,2.46,0,0,1,.85-2.34c5-4.9,8.42-11,12.23-16.79a6,6,0,0,1,2.25-2.1c4.79-8.65,9.24-17.5,14.84-25.69,1.39-2,2.82-4.06,5.09-5.26C492.53,646.9,492.9,647.27,492.73,648.21Z" transform="translate(-425.94 -631.68)"/><path d="M549.59,644.92c-10,2.21-16.74,8.8-22.34,16.83a25.9,25.9,0,0,0-4,8.75c-1.91,7.87,2.16,13,10.26,12.84,1.12,0,2.24-.09,3.36-.15.78-.37.87,0,.74.66a18.09,18.09,0,0,1-11-.48c-6.07-2.39-8.89-7.44-7.2-13.74,2.45-9.17,8.69-15.53,16.25-20.73a25,25,0,0,1,12.4-4.77C548.72,644,549.63,643.49,549.59,644.92Z" transform="translate(-425.94 -631.68)"/><path d="M554.84,672.7c4.52-6.12,7.5-13.18,11.75-19.47,4.58-6.76,9.55-13.08,16.75-17.27.79-.32.92.06.75.73a47.09,47.09,0,0,0-11.72,13.81c-4.49,7.56-8.74,15.26-13,22.92-.52.92-1.91,2.05,0,3,.23.17.3.35.22.52s-.16.25-.24.25c-3.52.91-4,.61-4.48-2.94C554.81,673.74,554.43,673.23,554.84,672.7Z" transform="translate(-425.94 -631.68)"/><path d="M609.77,664.62a23.59,23.59,0,0,0-7.56,9.31c-1.92,4-2.4,5-5.31.4l.08.08c5.69-8,9.54-17.1,15.42-25,3.44-4.6,7.07-9,12.06-12.05.78-.3.93.12.89.76-8,7.58-12.73,17.3-18,26.78,1.06.27,1.71-.93,2.57-.23Z" transform="translate(-425.94 -631.68)"/><path d="M629.84,675.72c-4.72,3.25-9.22,2.55-11.6-1.69a3.21,3.21,0,0,1-.22-3c2.36-7,7.25-11.13,13.28-11.14,1.49,0,2.82.22,3.57,1.51.88,1.54,0,3-1,4.07-2.46,2.71-5.88,3.55-9.25,4.42-.43-1.35-.46-1.4.85-2.29,1.87-1.29,3.92-2.38,4.23-5-3.11,1.86-4.89,4.86-6.67,7.85-2,1.13-1.71,3-1,4.54s2.36,1.52,3.91,1.54,2.56-1.07,4-.75Z" transform="translate(-425.94 -631.68)"/><path d="M440.81,706.35a15.67,15.67,0,0,1-8.41-1.11c-6-2.55-8.07-7.92-5.16-13.74a42.31,42.31,0,0,1,3.11-4.61c4.43-5.45,10.25-7.78,17.15-7.68a1,1,0,0,1,.34,1c-1.1,1.56-2.95,1.7-4.53,2.33-5.11,2.05-9.44,5-11.66,10.28-2.37,5.6-.36,9.69,5.49,11.53,1.17.37,2.46.38,3.55,1a.64.64,0,0,1,.27.61Q440.9,706.35,440.81,706.35Z" transform="translate(-425.94 -631.68)"/><path d="M578.82,677.08c-2.29,1-4.1,1-4.42-2.09-.49-.22-.95-.48-1-1.08,1.51-4.22,4.41-7.77,5.84-12l.41-.33c.7.22,1.25.78,2.1,0a3.89,3.89,0,0,1,4.32-1.09c-2.42,4.39-4.81,8.67-7.11,13-.47.87-1.89,1.9,0,2.86.2.2.26.38.18.56S578.9,677.08,578.82,677.08Z" transform="translate(-425.94 -631.68)"/><path d="M570.56,677.1c-1.56.66-3.29,1.17-4.41-.42a5,5,0,0,1-.41-5.44,28.26,28.26,0,0,1,5.86-8.53c2-1.87,4.15-3.68,7.27-2.58.26,1.09-.71,1.45-1.23,2.07a24.35,24.35,0,0,0-6.08,7.95c-1,1.89-1.91,3.84-.79,6A.85.85,0,0,1,570.56,677.1Z" transform="translate(-425.94 -631.68)"/><path d="M617.17,660.07c2.37-.12,2.69,1,1.51,2.73a16.16,16.16,0,0,1-5.55,4.94c-2.32,1.3-1.18,3.27-1,5,.14,1.31.29,2.93,2.45,2.37-.13,1.21-1.2,1.49-1.94,2-1.83,1.22-3.32,1-3.91-1.35-.48-1.93-.83-3.89-1.29-5.82-.38-1.65.81-2.21,1.89-2.82a37.7,37.7,0,0,0,7.94-5.54.58.58,0,0,0-.11-.8h0c-.25-.16-.33-.31-.23-.46S617.08,660.07,617.17,660.07Z" transform="translate(-425.94 -631.68)"/><path d="M593.82,676.43a2.25,2.25,0,0,1-3.36.87c-1.44-.84-1.35-2.33-.76-3.61,1.07-2.35,2.34-4.61,3.52-6.9.94-.78-.67-2.71,1.36-3,2.42,1.89,2.33,4.18,1,6.63-.77,1.41-1.6,2.79-2.42,4.18-.54.93-.54,1.63.71,1.88Z" transform="translate(-425.94 -631.68)"/><path d="M467.26,650.43c-.72,5.71-.27,6.63,4.85,10-2.6,3.45-4.56,3.4-6.52-.38a9.49,9.49,0,0,1,.87-10.49C467.17,649.44,467.6,649.59,467.26,650.43Z" transform="translate(-425.94 -631.68)"/><path d="M554.9,644.8c3.48,2.24,3.82,5.84.65,7.5a3.25,3.25,0,0,1-3.52,0,1.41,1.41,0,0,1-.66-1.59,2.61,2.61,0,0,1,2.43-2c3-.11,2.07-1.57,1.13-3.07a.52.52,0,0,1-.23-.56C554.76,644.9,554.83,644.8,554.9,644.8Z" transform="translate(-425.94 -631.68)"/><path d="M635.9,632.39c5.06-.73,9.94-.79,13.72,3.5.75.84,1.61,1.65,1.19,2.91a2,2,0,0,1-1,1c-.18.09-.8-.23-.89-.48-2.21-6.52-7.52-6.68-13.05-6.41-.26-.12-.34-.24-.26-.36A.35.35,0,0,1,635.9,632.39Z" transform="translate(-425.94 -631.68)"/><path d="M505.92,675.2a2.89,2.89,0,0,1-2.86,2.52c-1.39.15-2.58-.51-2.47-2s1.44-2.19,2.92-2.24A2.15,2.15,0,0,1,505.92,675.2Z" transform="translate(-425.94 -631.68)"/><path d="M537.56,683.85l-.74-.66a64.78,64.78,0,0,0,13.45-6.12l.3.32A27.33,27.33,0,0,1,537.56,683.85Z" transform="translate(-425.94 -631.68)"/><path d="M602.2,633a10.13,10.13,0,0,1,4.47,3.25c1.07,1.13,1.22,2.31,0,3.91-1.9-2.48-2.84-5.54-5.92-6.51C600.75,632.31,601.46,632.6,602.2,633Z" transform="translate(-425.94 -631.68)"/><path d="M493.39,645c1.48-.06,2.81-.93,4.35-.76,1.71.19,2.81.77,2.35,2.9-2,.17-3.78-1.45-5.76-.56C493,646.71,492.87,646.05,493.39,645Z" transform="translate(-425.94 -631.68)"/><path d="M602.2,633c-.5.18-1.16,0-1.45.65a19.6,19.6,0,0,0-9.86.06c-.26-.16-.35-.32-.27-.49s.16-.27.24-.27C594.64,631.5,598.43,631,602.2,633Z" transform="translate(-425.94 -631.68)"/><path d="M594.58,663.81c-1.24.63,0,2.39-1.36,3,.13-1.47.31-3-1.53-3.79-1.88,1-1.94,3.55-3.63,4.75-.29,0-.45-.07-.45-.38l2.79-5.91c.69-.44.69-1.84,2-1.45C591.71,662.09,593.76,662.59,594.58,663.81Z" transform="translate(-425.94 -631.68)"/><path d="M471.66,678.07l-1.28,2.2c-4.42-.75-9,.12-13.37-1a.76.76,0,0,1-.34-1.08Z" transform="translate(-425.94 -631.68)"/><path d="M592.39,660c-1.07-.07-.08,2.68-2,1.45-.67-3.43-.57-3.63,3.14-5.72A8.91,8.91,0,0,1,592.39,660Z" transform="translate(-425.94 -631.68)"/><path d="M456.58,698.89l1,1c-3.17,2.55-6.44,4.89-10.73,5.06,0-.17-.05-.34-.07-.52C450.09,702.64,452.79,699.8,456.58,698.89Z" transform="translate(-425.94 -631.68)"/><path d="M635.9,632.39v.53a37.14,37.14,0,0,0-10.55,5.23l-.89-.76C627.72,634.45,631.77,633.31,635.9,632.39Z" transform="translate(-425.94 -631.68)"/><path d="M579.55,675.69c2.65-1.56,4.36-4.17,6.76-6l.1.09c-1.14,3-3.52,4.88-6.08,6.6A1.27,1.27,0,0,1,579.55,675.69Z" transform="translate(-425.94 -631.68)"/><path d="M590.86,632.91l0,.76c-2.44.61-4.49,2.1-6.8,3l-.75-.73A14.89,14.89,0,0,1,590.86,632.91Z" transform="translate(-425.94 -631.68)"/><path d="M456.67,678.14a3.79,3.79,0,0,1,0,.58,9.08,9.08,0,0,1-9,1.42,2.82,2.82,0,0,1,0-.71c1.49-1.5,3.73-.1,5.28-1.36Z" transform="translate(-425.94 -631.68)"/><path d="M554.9,644.8l0,.85c-1.69-.89-3.56-.47-5.34-.73-.35-.65-1.09-.5-1.61-.79A7.74,7.74,0,0,1,554.9,644.8Z" transform="translate(-425.94 -631.68)"/><path d="M479.21,644.33l-7.6,2.1c-.39-.29-.39-.59,0-.89,2.09-1.36,4.47-1.64,6.87-1.9A1.3,1.3,0,0,1,479.21,644.33Z" transform="translate(-425.94 -631.68)"/><path d="M493.39,645a1.53,1.53,0,0,0,.94,1.58,3,3,0,0,1-1.6,1.61l-1.14-1.09c.47-.78,1.59-1.69-.42-1.93l-2.22-.26a.56.56,0,0,1-.23-.56c0-.2.1-.3.16-.3C490.38,644.42,492,644,493.39,645Z" transform="translate(-425.94 -631.68)"/><path d="M617.17,660.07c0,.23,0,.46,0,.68-2.49.41-4.14,2.64-6.64,3l-.13-.13A9.72,9.72,0,0,1,617.17,660.07Z" transform="translate(-425.94 -631.68)"/><path d="M554.84,672.7c.1.52,1,1,0,1.56-1.74.64-2.37,2.78-4.31,3.13a.59.59,0,0,1-.3-.32A28.63,28.63,0,0,1,554.84,672.7Z" transform="translate(-425.94 -631.68)"/><path d="M471.61,645.54v.89a13.54,13.54,0,0,0-4.35,4l-.8-.89A8.14,8.14,0,0,1,471.61,645.54Z" transform="translate(-425.94 -631.68)"/><path d="M440.81,706.35a.94.94,0,0,1,0-.44c1.76-2.22,3.81-2.42,6.11-.88l-.05-.06C445.12,706.56,443,706.57,440.81,706.35Z" transform="translate(-425.94 -631.68)"/><path d="M479.21,644.33l-.73-.69h7.31c0,1.31-.71,1-1.46.68Z" transform="translate(-425.94 -631.68)"/><path d="M484.33,644.32l1.46-.68c1.07-.14,2.18-.55,3.09.43l.07.86A7.73,7.73,0,0,1,484.33,644.32Z" transform="translate(-425.94 -631.68)"/><path d="M570.56,677.1a.52.52,0,0,1,.08-.51c-.17-1.94,1.27-2.09,2.62-2.35.65-.16,1.06,0,1.14.75C572.88,675.24,572.2,677.05,570.56,677.1Z" transform="translate(-425.94 -631.68)"/><path d="M637.61,668.39a9.12,9.12,0,0,1-2.54,3.48,1.21,1.21,0,0,1,.06-1,5.61,5.61,0,0,1,2.1-2.81Z" transform="translate(-425.94 -631.68)"/><path d="M559.36,677.2l0-.77a4.9,4.9,0,0,1,2.94-1.47A3.82,3.82,0,0,1,559.36,677.2Z" transform="translate(-425.94 -631.68)"/><path d="M586.31,669.69a2.74,2.74,0,0,1,1.3-2.32.81.81,0,0,1,.45.38,2.51,2.51,0,0,1-1.65,2Z" transform="translate(-425.94 -631.68)"/><path d="M632.14,674.25a1.94,1.94,0,0,1-2.3,1.47l.07.08a1.85,1.85,0,0,1,2.24-1.54Z" transform="translate(-425.94 -631.68)"/><path d="M596.23,675.09c-.7.64-1.26,1.51-2.41,1.34l.06.07c.64-.75,1.17-1.72,2.44-1.33Z" transform="translate(-425.94 -631.68)"/><path d="M577.39,661.37l1.48-1.24c.81.17.93.71.73,1.42l.08-.07A1.51,1.51,0,0,1,577.39,661.37Z" transform="translate(-425.94 -631.68)"/><path d="M579.55,675.69l.78.69-1.51.7,0-.82C578.86,675.79,579.2,675.74,579.55,675.69Z" transform="translate(-425.94 -631.68)"/><path d="M637.23,668.06c.14-.34.11-1,.69-.68.42.27.18.78-.31,1A1,1,0,0,1,637.23,668.06Z" transform="translate(-425.94 -631.68)"/><path d="M596.32,675.17c-.33-.73,0-.85.66-.76l-.08-.08-.67.76Z" transform="translate(-425.94 -631.68)"/><path d="M610.5,663.78l-.73.84.12.08c-.61-.7,0-.85.48-1.05Z" transform="translate(-425.94 -631.68)"/><path d="M617.15,660.75c.84.16.76.44.11.8Z" transform="translate(-425.94 -631.68)"/><path d="M635.13,670.87l-.06,1-.7.11,0,0C634.33,671.45,634.78,671.19,635.13,670.87Z" transform="translate(-425.94 -631.68)"/><path d="M632.92,673.54c-.06-.56.19-.81.75-.76l0,0c0,.56-.21.8-.76.75Z" transform="translate(-425.94 -631.68)"/><path d="M632.86,673.48c.06.54-.19.79-.72.77h0c0-.54.22-.79.77-.72Z" transform="translate(-425.94 -631.68)"/><path d="M633.67,672.78q-.09-.82.75-.75l0,0c0,.55-.21.79-.75.74Z" transform="translate(-425.94 -631.68)"/><path class="cls-1" d="M446.93,705c-2.13-.39-4.12.28-6.11.88a2.38,2.38,0,0,0-.37-.06c-4.43-.26-8.51-1.34-10.22-6s.26-8.5,3.24-11.93c3.74-4.31,8.9-6.15,14.14-7.79l9-1.42c3.3,0,6.6,0,9.89.16,1.37.06,3-.25,3.84,1.39-4.15,6.54-8.19,13.17-13.8,18.62A57.52,57.52,0,0,1,446.93,705Z" transform="translate(-425.94 -631.68)"/></svg>