<svg id="Layer_1" data-name="Layer 1" xmlns="http://www.w3.org/2000/svg" viewBox="0 0 480 400"><defs><style>.cls-1{fill:#fff;}</style></defs><title>tablet</title><path class="cls-1" d="M130.05,424H112v16h72V424H146.75L166,360H184V344H32a16,16,0,0,1-16-16V312H184V296H16V72A16,16,0,0,1,32,56H368a16,16,0,0,1,16,16v64h16V72a32,32,0,0,0-32-32H32A32,32,0,0,0,0,72V328a32,32,0,0,0,32,32H149.25Z" transform="translate(0 -40)"/><path class="cls-1" d="M352,120v16h16V112a8,8,0,0,0-8-8H40a8,8,0,0,0-8,8v96a8,8,0,0,0,8,8H184V200H48V120Z" transform="translate(0 -40)"/><path class="cls-1" d="M136,280V240a8,8,0,0,0-8-8H40a8,8,0,0,0-8,8v40H48V248h72v32Z" transform="translate(0 -40)"/><path class="cls-1" d="M152,240v40h16V248h16V232H160A8,8,0,0,0,152,240Z" transform="translate(0 -40)"/><path class="cls-1" d="M32,72H48V88H32Z" transform="translate(0 -40)"/><path class="cls-1" d="M64,72H80V88H64Z" transform="translate(0 -40)"/><path class="cls-1" d="M96,72h16V88H96Z" transform="translate(0 -40)"/><path class="cls-1" d="M424,216V176a24,24,0,0,0-24-24H224a24,24,0,0,0-24,24V416a24,24,0,0,0,24,24H336V424H224a8,8,0,0,1-8-8v-8H336V392H216V176a8,8,0,0,1,8-8H400a8,8,0,0,1,8,8v40Z" transform="translate(0 -40)"/><path class="cls-1" d="M240,184h24v16H240Z" transform="translate(0 -40)"/><path class="cls-1" d="M280,184h24v16H280Z" transform="translate(0 -40)"/><path class="cls-1" d="M320,184h24v16H320Z" transform="translate(0 -40)"/><path class="cls-1" d="M360,184h24v16H360Z" transform="translate(0 -40)"/><path class="cls-1" d="M248,232H352V216H240a8,8,0,0,0-8,8v56a8,8,0,0,0,8,8h96V272H248Z" transform="translate(0 -40)"/><path class="cls-1" d="M336,320V304H240a8,8,0,0,0-8,8v56a8,8,0,0,0,8,8h96V360H248V320Z" transform="translate(0 -40)"/><path class="cls-1" d="M456,232H376a24,24,0,0,0-24,24V416a24,24,0,0,0,24,24h80a24,24,0,0,0,24-24V256A24,24,0,0,0,456,232Zm8,184a8,8,0,0,1-8,8H376a8,8,0,0,1-8-8v-8h96Zm0-24H368V256a8,8,0,0,1,8-8h80a8,8,0,0,1,8,8Z" transform="translate(0 -40)"/><path class="cls-1" d="M440,264H392a8,8,0,0,0-8,8v32a8,8,0,0,0,8,8h48a8,8,0,0,0,8-8V272A8,8,0,0,0,440,264Zm-8,32H400V280h32Z" transform="translate(0 -40)"/><path class="cls-1" d="M440,328H392a8,8,0,0,0-8,8v32a8,8,0,0,0,8,8h48a8,8,0,0,0,8-8V336A8,8,0,0,0,440,328Zm-8,32H400V344h32Z" transform="translate(0 -40)"/></svg>