<svg id="Layer_5" data-name="Layer 5" xmlns="http://www.w3.org/2000/svg" viewBox="0 0 496.02 496"><defs><style>.cls-1{fill:#fff;}</style></defs><title>training</title><path class="cls-1" d="M489.38,392.14a49.2,49.2,0,0,0,4.7-5.48A52,52,0,0,0,503,346l-8.8-34.8a83.64,83.64,0,0,0-52.93-58.3A56,56,0,1,0,368.89,248H308a28,28,0,0,0-28,28,27.51,27.51,0,0,0,2.82,12H264V190.55l22.13-4.42A72.19,72.19,0,0,0,344,115.53V36a28,28,0,0,0-56,0v68a24,24,0,0,1-24,24H239.11a56,56,0,1,0-75.52,2.46,87.82,87.82,0,0,0-42.53,24.22,55.94,55.94,0,0,0-50.35,98.25,83.68,83.68,0,0,0-52.93,58.3L8.89,346.5a51.8,51.8,0,0,0,9,40.16,48.17,48.17,0,0,0,4.7,5.48A16,16,0,0,0,8,408v16a16,16,0,0,0,16,16H56v48H40v16h80V488H104V440h6.54l10.16,38.7a32,32,0,0,0,38,24.6,32,32,0,0,0,24.51-38.38L164.7,394.59A64.16,64.16,0,0,0,132.64,352H224V504h64V352h91.33a63.67,63.67,0,0,0-31.95,42.24l-18.66,71a32,32,0,0,0,62.48,13.8L401.46,440H416v48H400v16h80V488H464V440h24a16,16,0,0,0,16-16V408a16,16,0,0,0-14.62-15.86ZM368,208a40,40,0,1,1,40,40A40,40,0,0,1,368,208Zm-59.94,96h78.07l10.05,32H115.82l10.05-32H308.06Zm-100.3-91.07L200,220.69l-7.76-7.76L197.16,144h5.69ZM160,88a40,40,0,1,1,40,40A40,40,0,0,1,160,88Zm21.11,56.16-5.35,74.91L200,243.31l24.24-24.24L218.88,144H264a40,40,0,0,0,40-40V36a12,12,0,0,1,24,0v79.53a56.15,56.15,0,0,1-45,54.91l-35,7V288H229.18A27.51,27.51,0,0,0,232,276a28,28,0,0,0-28-28H143.11a55.83,55.83,0,0,0-6.91-85.74A71.81,71.81,0,0,1,181.11,144.16ZM64,208a40,40,0,1,1,40,40A40,40,0,0,1,64,208ZM88,488H72V440H88ZM24,424V408H61.59l40.63.37L106.34,424Zm125.16-25.7,18.49,70.34a16,16,0,0,1-12.28,19A16.28,16.28,0,0,1,136.27,475l-18.49-70.35A16.11,16.11,0,0,0,102.14,392H61.59C49,392,37.54,386.5,30.9,377.3a35.79,35.79,0,0,1-6.4-27.36l8.8-34.79A67.7,67.7,0,0,1,99,264H204a12,12,0,1,1-.06,24H114.13L91.52,360l10.84,0A48.45,48.45,0,0,1,149.16,398.3ZM272,488H240V352h32Zm103.65-12.66a16.39,16.39,0,0,1-19,12.32,16,16,0,0,1-10.12-7A15.79,15.79,0,0,1,344.27,469l18.66-71A48.31,48.31,0,0,1,409.64,360l10.84,0-22.61-72H308.06a12,12,0,1,1-.06-24H413a67.7,67.7,0,0,1,65.7,51.16l8.69,34.31a35.93,35.93,0,0,1-6.29,27.83C474.46,386.5,463,392,450.41,392H409.86a16,16,0,0,0-15.56,12.3ZM448,488H432V440h16Zm40-64H405.66l4.2-16H488Z" transform="translate(-7.98 -8)"/><path class="cls-1" d="M392,72h16V88H392Z" transform="translate(-7.98 -8)"/><path class="cls-1" d="M424,72h16V88H424Z" transform="translate(-7.98 -8)"/><path class="cls-1" d="M456,72h16V88H456Z" transform="translate(-7.98 -8)"/><path class="cls-1" d="M480,40H384a24,24,0,0,0-24,24V96a24,24,0,0,0,24,24h24v30.14L458.22,120H480a24,24,0,0,0,24-24V64A24,24,0,0,0,480,40Zm8,56a8,8,0,0,1-8,8H453.78L424,121.86V104H384a8,8,0,0,1-8-8V64a8,8,0,0,1,8-8h96a8,8,0,0,1,8,8Z" transform="translate(-7.98 -8)"/></svg>